<svg width="170" height="32" viewBox="0 0 170 32" fill="none" xmlns="http://www.w3.org/2000/svg">
<path d="M100.057 16.3067C101.614 16.3067 102.875 15.0454 102.875 13.4889C102.875 11.9324 101.614 10.671 100.057 10.671H94.4818V8.18213C94.4818 6.62563 93.2205 5.36426 91.664 5.36426C90.1075 5.36426 88.8461 6.62563 88.8461 8.18213V10.671H85.7222C84.1657 10.671 82.9043 11.9324 82.9043 13.4889C82.9043 15.0454 84.1657 16.3067 85.7222 16.3067H88.8461V22.1895C88.8461 25.1812 89.7325 27.5684 91.4803 29.2856C93.8227 31.5853 96.8056 31.699 97.3708 31.699C97.3784 31.699 97.3861 31.699 97.3926 31.699H100.056C101.613 31.699 102.874 30.4376 102.874 28.8811C102.874 27.3246 101.613 26.0633 100.056 26.0633H97.3828C97.3423 26.0633 97.3708 26.0611 97.3489 26.0622C94.8546 25.9966 94.4807 23.6094 94.4807 22.1884V16.3056H100.057V16.3067Z" fill="white"/>
<path d="M148.503 11.4775C147.049 10.9234 145.421 11.6524 144.867 13.1062L142.332 19.7486L139.797 13.1062C139.788 13.0821 139.776 13.0603 139.766 13.0362C139.748 12.9903 139.728 12.9455 139.706 12.9007C139.687 12.8592 139.666 12.8176 139.644 12.7772C139.623 12.7378 139.601 12.6996 139.578 12.6613C139.553 12.6187 139.527 12.5772 139.5 12.5367C139.477 12.5017 139.453 12.4678 139.428 12.4351C139.398 12.3946 139.368 12.3553 139.336 12.317C139.309 12.2842 139.281 12.2525 139.253 12.2208C139.221 12.1847 139.188 12.1509 139.154 12.117C139.123 12.0853 139.09 12.0547 139.057 12.0241C139.023 11.9935 138.989 11.964 138.954 11.9344C138.918 11.9049 138.881 11.8765 138.844 11.8481C138.808 11.8219 138.772 11.7956 138.735 11.7705C138.696 11.7453 138.657 11.7202 138.618 11.6962C138.577 11.6721 138.536 11.6481 138.494 11.6262C138.456 11.6054 138.418 11.5869 138.378 11.5683C138.331 11.5453 138.283 11.5245 138.234 11.5049C138.212 11.4961 138.191 11.4852 138.17 11.4765C138.154 11.471 138.138 11.4666 138.123 11.4612C138.071 11.4426 138.02 11.4262 137.967 11.4109C137.93 11.3999 137.892 11.3879 137.855 11.3792C137.803 11.3661 137.752 11.3562 137.701 11.3464C137.661 11.3387 137.621 11.33 137.581 11.3245C137.531 11.3169 137.481 11.3125 137.431 11.307C137.389 11.3027 137.349 11.2983 137.307 11.2961C137.257 11.2939 137.207 11.2939 137.156 11.2939C137.115 11.2939 137.073 11.2939 137.032 11.2961C136.983 11.2983 136.933 11.3038 136.884 11.3081C136.842 11.3125 136.8 11.3158 136.757 11.3223C136.71 11.3289 136.663 11.3387 136.616 11.3486C136.572 11.3573 136.528 11.3661 136.484 11.377C136.44 11.3879 136.397 11.401 136.353 11.4141C136.307 11.4284 136.26 11.4426 136.215 11.459C136.198 11.4655 136.179 11.4699 136.162 11.4765C136.136 11.4863 136.114 11.4983 136.088 11.5082C136.045 11.5267 136.002 11.5453 135.959 11.565C135.916 11.5858 135.873 11.6076 135.83 11.6306C135.793 11.6502 135.756 11.6721 135.72 11.694C135.676 11.7202 135.634 11.7464 135.592 11.7749C135.558 11.7978 135.525 11.8208 135.493 11.8459C135.452 11.8754 135.413 11.906 135.374 11.9377C135.341 11.965 135.309 11.9924 135.277 12.0208C135.242 12.0525 135.207 12.0853 135.174 12.1192C135.142 12.1509 135.11 12.1847 135.08 12.2186C135.05 12.2514 135.02 12.2842 134.992 12.3192C134.961 12.3564 134.932 12.3946 134.902 12.434C134.877 12.4678 134.852 12.5028 134.829 12.5378C134.802 12.5782 134.777 12.6187 134.752 12.6613C134.729 12.6996 134.707 12.7389 134.686 12.7783C134.664 12.8187 134.643 12.8592 134.624 12.9018C134.603 12.9466 134.583 12.9914 134.564 13.0373C134.554 13.0614 134.542 13.0832 134.533 13.1073L131.998 19.7497L129.463 13.1073C128.908 11.6535 127.281 10.9245 125.827 11.4786C124.373 12.0339 123.644 13.6615 124.198 15.1152L129.365 28.6569C129.371 28.6712 129.379 28.6843 129.385 28.6985C129.433 28.8187 129.487 28.9379 129.552 29.0504C129.559 29.0614 129.565 29.0701 129.572 29.081C129.631 29.1816 129.697 29.2778 129.77 29.3707C129.787 29.3937 129.804 29.4177 129.823 29.4407C129.901 29.5357 129.985 29.6265 130.076 29.7106C130.091 29.7248 130.107 29.738 130.123 29.7511C130.205 29.8243 130.291 29.8932 130.383 29.9566C130.402 29.9697 130.421 29.9839 130.441 29.997C130.543 30.0648 130.65 30.1271 130.763 30.1828C130.785 30.1938 130.807 30.2014 130.829 30.2113C130.883 30.2364 130.938 30.2626 130.995 30.2845C131.039 30.3009 131.082 30.314 131.126 30.3282C131.15 30.3359 131.173 30.3446 131.196 30.3512C131.314 30.3861 131.432 30.4135 131.551 30.432C131.574 30.4353 131.596 30.4386 131.619 30.4408C131.746 30.4583 131.873 30.4692 131.998 30.4692C131.998 30.4692 131.998 30.4692 131.999 30.4692C131.999 30.4692 131.999 30.4692 132 30.4692C132.126 30.4692 132.253 30.4583 132.38 30.4408C132.403 30.4375 132.425 30.4353 132.447 30.432C132.566 30.4124 132.685 30.3861 132.803 30.3512C132.827 30.3435 132.85 30.3359 132.874 30.3282C132.917 30.314 132.961 30.302 133.005 30.2845C133.062 30.2626 133.115 30.2364 133.17 30.2113C133.192 30.2014 133.215 30.1927 133.237 30.1817C133.349 30.1271 133.456 30.0648 133.559 29.997C133.579 29.9839 133.598 29.9686 133.618 29.9555C133.709 29.8921 133.794 29.8243 133.876 29.7522C133.892 29.738 133.909 29.7248 133.925 29.7095C134.015 29.6254 134.098 29.5357 134.176 29.4407C134.195 29.4177 134.213 29.3926 134.231 29.3685C134.302 29.2767 134.368 29.1816 134.427 29.081C134.434 29.0701 134.441 29.0592 134.448 29.0483C134.512 28.9357 134.566 28.8176 134.614 28.6963C134.619 28.6821 134.628 28.669 134.634 28.6548L137.168 22.0123L139.703 28.6548C139.709 28.669 139.717 28.6821 139.723 28.6963C139.771 28.8165 139.826 28.9357 139.89 29.0483C139.897 29.0592 139.903 29.0679 139.91 29.0789C139.969 29.1794 140.035 29.2756 140.108 29.3685C140.125 29.3915 140.142 29.4155 140.161 29.4385C140.239 29.5336 140.323 29.6243 140.414 29.7085C140.429 29.7227 140.445 29.7358 140.461 29.7489C140.543 29.8221 140.629 29.891 140.721 29.9544C140.74 29.9675 140.759 29.9817 140.779 29.9948C140.881 30.0626 140.989 30.1249 141.101 30.1806C141.123 30.1916 141.145 30.1992 141.167 30.2091C141.221 30.2342 141.276 30.2604 141.333 30.2823C141.377 30.2987 141.42 30.3118 141.464 30.326C141.488 30.3337 141.511 30.3424 141.534 30.349C141.652 30.384 141.77 30.4113 141.889 30.4299C141.912 30.4331 141.934 30.4364 141.957 30.4386C142.084 30.4561 142.211 30.467 142.336 30.467C142.336 30.467 142.336 30.467 142.337 30.467C142.337 30.467 142.337 30.467 142.338 30.467C142.464 30.467 142.591 30.4561 142.718 30.4386C142.741 30.4353 142.763 30.4331 142.785 30.4299C142.905 30.4102 143.023 30.384 143.141 30.349C143.165 30.3413 143.188 30.3337 143.212 30.326C143.255 30.3118 143.299 30.2998 143.343 30.2823C143.4 30.2604 143.453 30.2342 143.508 30.2091C143.53 30.1992 143.553 30.1905 143.575 30.1796C143.687 30.1249 143.794 30.0626 143.897 29.9948C143.917 29.9817 143.936 29.9664 143.956 29.9533C144.047 29.8899 144.132 29.8221 144.213 29.75C144.229 29.7358 144.246 29.7227 144.262 29.7074C144.352 29.6232 144.435 29.5336 144.512 29.4385C144.532 29.4155 144.55 29.3904 144.568 29.3663C144.639 29.2745 144.705 29.1794 144.764 29.0789C144.77 29.0679 144.778 29.057 144.785 29.0461C144.849 28.9335 144.903 28.8154 144.951 28.6941C144.956 28.6799 144.965 28.6668 144.97 28.6526L150.137 15.1108C150.686 13.6604 149.958 12.0317 148.503 11.4775Z" fill="white"/>
<path d="M113.281 10.8799C107.667 10.8799 103.101 15.4466 103.101 21.0605C103.101 26.6744 107.667 31.2411 113.281 31.2411C118.895 31.2411 123.462 26.6744 123.462 21.0605C123.462 15.4466 118.895 10.8799 113.281 10.8799ZM113.281 25.6054C110.775 25.6054 108.736 23.5669 108.736 21.0605C108.736 18.5542 110.776 16.5156 113.281 16.5156C115.788 16.5156 117.826 18.5542 117.826 21.0605C117.827 23.5669 115.788 25.6054 113.281 25.6054Z" fill="white"/>
<path d="M161.165 11.3102C159.736 11.3102 158.371 11.6512 157.151 12.2513C156.644 11.508 155.79 11.0205 154.823 11.0205C153.266 11.0205 152.005 12.2819 152.005 13.8384V28.424C152.005 29.9805 153.266 31.2419 154.823 31.2419C156.379 31.2419 157.641 29.9805 157.641 28.424V20.2611C157.641 18.4948 159.287 16.9459 161.165 16.9459C162.935 16.9459 164.271 18.3712 164.271 20.2611V28.424C164.271 29.9805 165.532 31.2419 167.089 31.2419C168.645 31.2419 169.907 29.9805 169.907 28.424V20.2611C169.907 15.2418 166.067 11.3102 161.165 11.3102Z" fill="white"/>
<path d="M27.1666 25.9664C23.3988 25.9664 21.063 24.7553 21.063 18.7239V11.1469C21.1286 10.185 21.2029 6.30031 18.4812 3.29007C16.5061 1.10725 13.6642 0 10.032 0C9.59694 0 5.69695 0.0710477 2.72606 2.52056C1.46905 3.55677 1.28979 5.41713 2.32709 6.67414C3.36439 7.93223 5.22367 8.1104 6.48067 7.0731C7.61525 6.13745 9.44391 5.9101 10.032 5.90026C11.9076 5.90026 13.2707 6.34513 14.0806 7.22284C15.3289 8.57385 15.1758 10.7337 15.1758 10.7348C15.1616 10.8528 15.1605 10.9108 15.1605 11.0299V11.8125C13.768 11.1349 12.206 10.7545 10.5566 10.7545C4.73617 10.7545 0 15.4895 0 21.3111C0 27.1316 4.73507 31.8677 10.5566 31.8677C13.5964 31.8677 16.3378 30.5747 18.2659 28.5121C20.3263 30.7386 23.3158 31.8677 27.1655 31.8677C28.7952 31.8677 30.1167 30.5463 30.1167 28.9165C30.1178 27.2879 28.7963 25.9664 27.1666 25.9664ZM10.5479 21.2991C8.96297 22.884 6.39213 22.884 4.80612 21.2991C3.22121 19.7142 3.22121 17.1433 4.80612 15.5573C6.39104 13.9724 8.96188 13.9724 10.5479 15.5573C12.1339 17.1433 12.1339 19.7142 10.5479 21.2991Z" fill="url(#paint0_linear_5_11835)"/>
<path d="M81.6392 25.9664C77.8715 25.9664 75.5356 24.7553 75.5356 18.7239V11.1469C75.6012 10.185 75.6755 6.30031 72.9539 3.29007C70.9787 1.10725 68.1368 0 64.5046 0C64.0696 0 60.1696 0.0710477 57.1987 2.52056C55.9417 3.55677 55.7624 5.41713 56.7997 6.67414C57.837 7.93223 59.6963 8.1104 60.9533 7.0731C62.0879 6.13745 63.9166 5.9101 64.5046 5.90026C66.3803 5.90026 67.7433 6.34513 68.5533 7.22284C69.8015 8.57385 69.6485 10.7337 69.6485 10.7348C69.6343 10.8528 69.6332 10.9108 69.6332 11.0299V11.8125C68.2407 11.1349 66.6787 10.7545 65.0293 10.7545C59.2088 10.7545 54.4727 15.4895 54.4727 21.3111C54.4727 27.1316 59.2077 31.8677 65.0293 31.8677C68.069 31.8677 70.8104 30.5747 72.7385 28.5121C74.7989 30.7386 77.7884 31.8677 81.6381 31.8677C83.2678 31.8677 84.5893 30.5463 84.5893 28.9165C84.5904 27.2879 83.2689 25.9664 81.6392 25.9664ZM65.0205 21.2991C63.4356 22.884 60.8648 22.884 59.2788 21.2991C57.6939 19.7142 57.6939 17.1433 59.2788 15.5573C60.8637 13.9724 63.4345 13.9724 65.0205 15.5573C66.6066 17.1433 66.6066 19.7142 65.0205 21.2991Z" fill="url(#paint1_linear_5_11835)"/>
<path d="M48.9955 10.187C47.1636 10.0526 45.5831 11.42 45.4475 13.2432C44.7589 22.5067 40.7299 24.8546 39.7014 25.3038C38.6728 24.8546 34.6439 22.5067 33.9552 13.2432C33.8197 11.4189 32.2315 10.0515 30.4072 10.187C28.584 10.3225 27.2155 11.9107 27.3511 13.735C28.3774 27.5358 36.1151 31.9998 39.7025 31.9998C43.2898 31.9998 51.0264 27.5358 52.0539 13.735C52.1883 11.9107 50.8198 10.3225 48.9955 10.187Z" fill="url(#paint2_linear_5_11835)"/>
<defs>
<linearGradient id="paint0_linear_5_11835" x1="15.0599" y1="31.834" x2="15.0599" y2="-0.0334797" gradientUnits="userSpaceOnUse">
<stop stop-color="#E8373F"/>
<stop offset="0.1516" stop-color="#E83D46"/>
<stop offset="0.416" stop-color="#E94B58"/>
<stop offset="0.7595" stop-color="#EA5E76"/>
<stop offset="1" stop-color="#EB6D8E"/>
</linearGradient>
<linearGradient id="paint1_linear_5_11835" x1="69.5323" y1="31.834" x2="69.5323" y2="-0.0334797" gradientUnits="userSpaceOnUse">
<stop stop-color="#E8373F"/>
<stop offset="0.1516" stop-color="#E83D46"/>
<stop offset="0.416" stop-color="#E94B58"/>
<stop offset="0.7595" stop-color="#EA5E76"/>
<stop offset="1" stop-color="#EB6D8E"/>
</linearGradient>
<linearGradient id="paint2_linear_5_11835" x1="39.7015" y1="31.8338" x2="39.7015" y2="-0.0514147" gradientUnits="userSpaceOnUse">
<stop stop-color="#E8373F"/>
<stop offset="0.1516" stop-color="#E83D46"/>
<stop offset="0.416" stop-color="#E94B58"/>
<stop offset="0.7595" stop-color="#EA5E76"/>
<stop offset="1" stop-color="#EB6D8E"/>
</linearGradient>
</defs>
</svg>
