<svg width="34" height="24" viewBox="0 0 34 24" fill="none" xmlns="http://www.w3.org/2000/svg">
<g clip-path="url(#clip0_2094_1243)">
<path d="M11.1568 16.4625C8.6945 16.4625 6.69425 14.4623 6.69425 12C6.69425 11.9055 6.6995 11.8058 6.70475 11.7113C6.8465 9.52201 8.60525 7.72651 10.7945 7.55326C11.8603 7.46401 12.9208 7.76326 13.7818 8.39326C14.1125 8.62951 14.5693 8.58751 14.858 8.29876L17.4568 5.70001C17.6615 5.49526 17.6615 5.16451 17.4568 4.95976C17.4515 4.95451 17.441 4.94401 17.4358 4.93876C15.5772 3.28501 13.1465 2.42926 10.6632 2.56051C5.8175 2.80726 1.901 6.78151 1.712 11.6273C1.50725 16.8405 5.57075 21.2348 10.7893 21.4395C13.2305 21.534 15.614 20.6783 17.441 19.056C17.6562 18.8618 17.672 18.531 17.4778 18.3158C17.4725 18.3105 17.4673 18.3 17.4568 18.2948L14.858 15.696C14.5693 15.4073 14.1125 15.3653 13.7765 15.6068C13.0153 16.1685 12.0965 16.4625 11.1568 16.4625Z" fill="#00A7EA" stroke="#231815" stroke-width="0.0920604" stroke-miterlimit="10"/>
<path d="M26.1509 5.85742C24.5234 5.85742 22.9589 6.50317 21.8091 7.65817L20.9901 8.47192L19.2471 6.72892C19.0424 6.52417 18.7116 6.52417 18.5069 6.72892L15.7244 9.51142C15.5196 9.71617 15.5196 10.0469 15.7244 10.2517L17.4674 11.9947L15.7244 13.7377C15.5196 13.9424 15.5196 14.2732 15.7244 14.4779L18.5069 17.2604C18.7116 17.4652 19.0424 17.4652 19.2471 17.2604L20.9901 15.5174L21.8091 16.3364C24.2084 18.7357 28.0986 18.7357 30.4979 16.3364C32.8971 13.9372 32.8971 10.0469 30.4979 7.64767C29.3429 6.50317 27.7836 5.85742 26.1509 5.85742ZM26.1509 13.1549C25.8464 13.1549 25.5524 13.0342 25.3319 12.8189L24.5181 11.9999L25.3371 11.1809C25.7886 10.7294 26.5184 10.7294 26.9699 11.1809C27.4214 11.6324 27.4214 12.3622 26.9699 12.8137C26.7546 13.0342 26.4606 13.1549 26.1509 13.1549Z" fill="white"/>
</g>
<defs>
<clipPath id="clip0_2094_1243">
<rect width="33.6" height="24" fill="white"/>
</clipPath>
</defs>
</svg>
